<svg width="326" height="56" viewBox="0 0 326 56" fill="none" xmlns="http://www.w3.org/2000/svg">
<path opacity="0.66369" d="M298.051 1H27.9485C13.0653 1 1 13.0653 1 27.9485C1 42.8318 13.0653 54.897 27.9485 54.897H298.051C312.935 54.897 325 42.8318 325 27.9485C325 13.0653 312.935 1 298.051 1Z" fill="url(#paint0_linear_12_9)" stroke="url(#paint1_linear_12_9)" stroke-width="0.7" stroke-miterlimit="3.1" stroke-linecap="square"/>
<path d="M25.2979 20.2356H28.0286V26.4267H33.3016V20.2356H36.0323V35.6311H33.3016V28.8044H28.0286V35.6311H25.2979V20.2356ZM38.9749 29.8637C38.9749 28.9064 39.1319 28.051 39.4457 27.2977C39.7753 26.5444 40.2068 25.9088 40.7404 25.3909C41.274 24.8731 41.8939 24.4807 42.6002 24.2139C43.3064 23.9314 44.0361 23.7902 44.7894 23.7902C45.5427 23.7902 46.2725 23.9314 46.9787 24.2139C47.6849 24.4807 48.3047 24.8731 48.8383 25.3909C49.3719 25.9088 49.7957 26.5444 50.1096 27.2977C50.4392 28.051 50.6039 28.9064 50.6039 29.8637C50.6039 30.821 50.4392 31.6763 50.1096 32.4296C49.7957 33.1829 49.3719 33.8185 48.8383 34.3364C48.3047 34.8543 47.6849 35.2466 46.9787 35.5134C46.2725 35.7802 45.5427 35.9136 44.7894 35.9136C44.0361 35.9136 43.3064 35.7802 42.6002 35.5134C41.8939 35.2466 41.274 34.8543 40.7404 34.3364C40.2068 33.8185 39.7753 33.1829 39.4457 32.4296C39.1319 31.6763 38.9749 30.821 38.9749 29.8637ZM41.7762 29.8637C41.7762 31.025 42.0429 31.9588 42.5765 32.665C43.1102 33.3555 43.8478 33.7008 44.7894 33.7008C45.731 33.7008 46.4686 33.3555 47.0022 32.665C47.5358 31.9588 47.8026 31.025 47.8026 29.8637C47.8026 28.6866 47.5358 27.7529 47.0022 27.0624C46.4686 26.3561 45.731 26.003 44.7894 26.003C43.8478 26.003 43.1102 26.3561 42.5765 27.0624C42.0429 27.7529 41.7762 28.6866 41.7762 29.8637ZM52.9815 24.0727H55.0296L55.2415 25.5557H55.3122C55.5791 25.0535 55.9007 24.6377 56.2774 24.3081C56.6697 23.9628 57.1955 23.7902 57.8546 23.7902C58.9845 23.7902 59.6907 24.4337 59.9732 25.7205C60.2401 25.1713 60.5776 24.7161 60.9856 24.3552C61.4093 23.9785 61.9428 23.7902 62.5863 23.7902C63.4023 23.7902 64.0302 24.1119 64.4696 24.7553C64.9247 25.3831 65.1522 26.2777 65.1522 27.439V35.6311H62.5863V27.6508C62.5863 26.6307 62.2646 26.1207 61.6211 26.1207C61.3073 26.1207 61.0327 26.2384 60.7972 26.4738C60.5618 26.7092 60.3343 27.0702 60.1146 27.5567V35.6311H57.9959V27.6508C57.9959 26.6307 57.6663 26.1207 57.0072 26.1207C56.6933 26.1207 56.4265 26.2384 56.2068 26.4738C55.9871 26.7092 55.7674 27.0702 55.5477 27.5567V35.6311H52.9817L52.9815 24.0727ZM67.4355 29.8637C67.4355 28.922 67.6003 28.0746 67.9299 27.3213C68.2752 26.568 68.7224 25.9324 69.2717 25.4145C69.821 24.8809 70.4487 24.4807 71.1549 24.2139C71.8768 23.9314 72.6144 23.7902 73.3677 23.7902C74.2309 23.7902 74.992 23.9314 75.6511 24.2139C76.326 24.4807 76.8909 24.8574 77.3461 25.3439C77.8012 25.8147 78.1464 26.3875 78.3819 27.0624C78.6172 27.7372 78.735 28.4748 78.735 29.2752C78.735 29.542 78.7194 29.7852 78.6881 30.0049C78.6722 30.2246 78.6485 30.4051 78.6173 30.5464H70.2133C70.3389 31.5978 70.7547 32.4061 71.461 32.971C72.1672 33.536 73.046 33.8185 74.0975 33.8185C74.6939 33.8185 75.251 33.74 75.7689 33.5831C76.2868 33.4105 76.8126 33.175 77.3462 32.8769L78.2642 34.5718C77.6365 34.9641 76.9381 35.2859 76.1692 35.537C75.4002 35.7881 74.592 35.9136 73.7445 35.9136C72.8656 35.9136 72.0416 35.7802 71.2726 35.5134C70.5037 35.2309 69.8367 34.8307 69.2717 34.3128C68.7067 33.795 68.2595 33.1672 67.93 32.4296C67.6004 31.6763 67.4355 30.821 67.4355 29.8637ZM76.2396 28.8279C76.2396 27.902 76.0043 27.18 75.5335 26.6621C75.0627 26.1443 74.3642 25.8853 73.4383 25.8853C73.0459 25.8853 72.6693 25.9481 72.3084 26.0736C71.9474 26.1992 71.6178 26.3875 71.3197 26.6386C71.0372 26.8897 70.7939 27.1958 70.5899 27.5567C70.3859 27.9177 70.2525 28.3414 70.1897 28.8279H76.2396Z" fill="white"/>
<path d="M230.147 28.0511H232.265C233.333 28.0511 234.141 27.8314 234.69 27.392C235.255 26.9525 235.538 26.2934 235.538 25.4145C235.538 24.52 235.255 23.9001 234.69 23.5548C234.141 23.2096 233.333 23.0369 232.265 23.0369H230.147V28.0511ZM235.749 36.2432L232.454 30.2168H230.147V36.2432H227.416V20.8476H232.548C233.348 20.8476 234.094 20.9261 234.784 21.0831C235.475 21.24 236.071 21.499 236.573 21.8599C237.091 22.2052 237.491 22.6681 237.774 23.2488C238.072 23.8294 238.221 24.5514 238.221 25.4145C238.221 26.5916 237.939 27.541 237.374 28.2629C236.824 28.9848 236.087 29.5028 235.161 29.8166L238.833 36.2432H235.749ZM241.023 30.4758C241.023 29.5341 241.187 28.6867 241.517 27.9334C241.862 27.1801 242.309 26.5445 242.859 26.0266C243.408 25.493 244.036 25.0928 244.742 24.826C245.464 24.5435 246.202 24.4023 246.955 24.4023C247.818 24.4023 248.579 24.5435 249.238 24.826C249.913 25.0928 250.478 25.4695 250.933 25.956C251.388 26.4268 251.733 26.9996 251.969 27.6744C252.204 28.3492 252.322 29.0869 252.322 29.8873C252.322 30.1541 252.306 30.3973 252.275 30.617C252.259 30.8367 252.236 31.0172 252.204 31.1584H243.8C243.926 32.2099 244.342 33.0182 245.048 33.5831C245.754 34.1481 246.633 34.4306 247.685 34.4306C248.281 34.4306 248.838 34.3521 249.356 34.1952C249.874 34.0226 250.4 33.7871 250.933 33.489L251.851 35.1839C251.224 35.5762 250.525 35.8979 249.756 36.149C248.987 36.4001 248.179 36.5257 247.332 36.5257C246.453 36.5257 245.629 36.3923 244.86 36.1255C244.091 35.843 243.424 35.4428 242.859 34.9249C242.294 34.407 241.847 33.7793 241.517 33.0416C241.187 32.2884 241.023 31.4331 241.023 30.4758ZM249.827 29.4399C249.827 28.514 249.591 27.7921 249.12 27.2742C248.65 26.7563 247.951 26.4974 247.025 26.4974C246.633 26.4974 246.256 26.5602 245.895 26.6857C245.534 26.8113 245.205 26.9996 244.907 27.2507C244.624 27.5018 244.381 27.8078 244.177 28.1688C243.973 28.5297 243.839 28.9534 243.777 29.4399H249.827ZM255.359 33.1358C255.359 32.4924 255.508 31.9274 255.806 31.4409C256.104 30.9387 256.575 30.515 257.219 30.1697C257.862 29.8245 258.686 29.542 259.69 29.3222C260.695 29.1025 261.911 28.9456 263.339 28.8514C263.292 28.1923 263.056 27.6509 262.633 27.2272C262.209 26.8034 261.526 26.5916 260.585 26.5916C259.926 26.5916 259.274 26.7171 258.631 26.9682C258.003 27.2036 257.391 27.4861 256.795 27.8157L255.806 26.003C256.512 25.595 257.32 25.2262 258.231 24.8967C259.141 24.5671 260.09 24.4023 261.079 24.4023C262.696 24.4023 263.928 24.8338 264.775 25.697C265.622 26.5445 266.046 27.7764 266.046 29.3929V36.2432H263.833L263.621 34.8072H263.551C262.939 35.2781 262.256 35.6861 261.503 36.0313C260.765 36.3609 260.004 36.5257 259.219 36.5257C258.654 36.5257 258.136 36.4394 257.665 36.2667C257.195 36.1098 256.787 35.8822 256.441 35.584C256.096 35.2859 255.829 34.9328 255.641 34.5247C255.453 34.101 255.359 33.638 255.359 33.1358ZM257.972 32.924C257.972 33.4419 258.168 33.8185 258.56 34.0539C258.968 34.2893 259.463 34.407 260.043 34.407C260.624 34.407 261.181 34.2815 261.715 34.0304C262.264 33.7636 262.805 33.4183 263.339 32.9946V30.5463C262.303 30.6248 261.44 30.7347 260.75 30.8759C260.059 31.0015 259.51 31.1663 259.102 31.3703C258.694 31.5743 258.403 31.8097 258.231 32.0765C258.058 32.3276 257.972 32.6101 257.972 32.924ZM269.059 30.4758C269.059 29.5341 269.201 28.6867 269.483 27.9334C269.766 27.1801 270.142 26.5445 270.613 26.0266C271.1 25.5087 271.649 25.1085 272.261 24.826C272.873 24.5435 273.509 24.4023 274.168 24.4023C274.858 24.4023 275.447 24.5278 275.933 24.7789C276.435 25.0143 276.922 25.3439 277.393 25.7676L277.275 23.8137V19.6235H280.006V36.2432H277.769L277.558 34.9014H277.487C277.032 35.3565 276.498 35.741 275.886 36.0549C275.29 36.3688 274.662 36.5257 274.003 36.5257C273.265 36.5257 272.59 36.3923 271.978 36.1255C271.366 35.843 270.84 35.4428 270.401 34.9249C269.977 34.407 269.648 33.7793 269.412 33.0416C269.177 32.2884 269.059 31.4331 269.059 30.4758ZM271.861 30.4522C271.861 31.7077 272.104 32.665 272.59 33.3242C273.077 33.9676 273.767 34.2894 274.662 34.2894C275.619 34.2894 276.49 33.8264 277.275 32.9004V27.698C276.867 27.3056 276.459 27.031 276.051 26.8741C275.643 26.7171 275.227 26.6386 274.803 26.6386C274.395 26.6386 274.011 26.725 273.65 26.8976C273.305 27.0702 272.999 27.3213 272.732 27.6509C272.465 27.9647 272.253 28.3571 272.096 28.8279C271.939 29.2987 271.861 29.8402 271.861 30.4522ZM283.066 24.6848H285.114L285.326 26.1678H285.397C285.663 25.6656 285.985 25.2498 286.362 24.9202C286.754 24.5749 287.28 24.4023 287.939 24.4023C289.069 24.4023 289.775 25.0457 290.058 26.3326C290.325 25.7833 290.662 25.3282 291.07 24.9673C291.494 24.5906 292.027 24.4023 292.671 24.4023C293.487 24.4023 294.115 24.724 294.554 25.3675C295.009 25.9952 295.237 26.8898 295.237 28.0511V36.2432H292.671V28.2629C292.671 27.2428 292.349 26.7328 291.706 26.7328C291.392 26.7328 291.117 26.8505 290.882 27.0859C290.646 27.3213 290.419 27.6823 290.199 28.1688V36.2432H288.08V28.2629C288.08 27.2428 287.751 26.7328 287.092 26.7328C286.778 26.7328 286.511 26.8505 286.291 27.0859C286.071 27.3213 285.852 27.6823 285.632 28.1688V36.2432H283.066L283.066 24.6848ZM297.52 30.4758C297.52 29.5341 297.685 28.6867 298.014 27.9334C298.36 27.1801 298.807 26.5445 299.356 26.0266C299.905 25.493 300.533 25.0928 301.239 24.826C301.961 24.5435 302.699 24.4023 303.452 24.4023C304.315 24.4023 305.076 24.5435 305.736 24.826C306.41 25.0928 306.975 25.4695 307.431 25.956C307.886 26.4268 308.231 26.9996 308.466 27.6744C308.702 28.3492 308.819 29.0869 308.819 29.8873C308.819 30.1541 308.804 30.3973 308.773 30.617C308.757 30.8367 308.733 31.0172 308.702 31.1585H300.298C300.423 32.2099 300.839 33.0182 301.545 33.5831C302.252 34.1481 303.13 34.4306 304.182 34.4306C304.778 34.4306 305.335 34.3521 305.853 34.1952C306.371 34.0226 306.897 33.7871 307.431 33.489L308.349 35.1839C307.721 35.5762 307.023 35.898 306.254 36.1491C305.485 36.4002 304.676 36.5257 303.829 36.5257C302.95 36.5257 302.126 36.3923 301.357 36.1255C300.588 35.843 299.921 35.4428 299.356 34.9249C298.791 34.407 298.344 33.7793 298.014 33.0417C297.685 32.2884 297.52 31.4331 297.52 30.4758ZM306.324 29.4399C306.324 28.514 306.089 27.7921 305.618 27.2742C305.147 26.7563 304.449 26.4974 303.523 26.4974C303.13 26.4974 302.754 26.5602 302.393 26.6857C302.032 26.8113 301.702 26.9996 301.404 27.2507C301.122 27.5018 300.878 27.8078 300.674 28.1688C300.47 28.5297 300.337 28.9534 300.274 29.4399H306.324Z" fill="#F9F9F9"/>
<path d="M130.17 29.9343L129.629 28.0511C129.409 27.235 129.181 26.3954 128.946 25.5323C128.711 24.6691 128.483 23.8138 128.263 22.9663H128.169C127.949 23.8295 127.722 24.6926 127.486 25.5558C127.267 26.4033 127.039 27.235 126.804 28.0511L126.262 29.9343H130.17ZM130.782 32.0765H125.65L124.45 36.2432H121.672L126.662 20.8476H129.864L134.855 36.2432H131.959L130.782 32.0765ZM137.256 19.6235H139.987V23.908L139.892 25.9324C140.395 25.4616 140.96 25.0928 141.587 24.826C142.215 24.5435 142.843 24.4023 143.471 24.4023C144.224 24.4023 144.891 24.5435 145.472 24.826C146.052 25.0928 146.547 25.4852 146.955 26.003C147.363 26.5052 147.669 27.1173 147.873 27.8392C148.092 28.5611 148.202 29.3693 148.202 30.2639C148.202 31.2526 148.061 32.1393 147.778 32.924C147.496 33.693 147.111 34.3443 146.625 34.8779C146.154 35.4115 145.605 35.8195 144.977 36.102C144.365 36.3845 143.73 36.5257 143.07 36.5257C142.521 36.5257 141.948 36.3923 141.352 36.1255C140.756 35.8587 140.206 35.4742 139.704 34.972H139.633L139.398 36.2432H137.256L137.256 19.6235ZM139.987 33.23C140.41 33.6224 140.85 33.897 141.305 34.0539C141.76 34.2109 142.168 34.2894 142.529 34.2894C143.345 34.2894 144.028 33.9598 144.577 33.3006C145.126 32.6258 145.401 31.6292 145.401 30.311C145.401 29.1496 145.189 28.2473 144.765 27.6038C144.342 26.9604 143.659 26.6386 142.717 26.6386C142.278 26.6386 141.831 26.7485 141.375 26.9682C140.92 27.188 140.457 27.541 139.987 28.0276V33.23ZM150.697 30.4758C150.697 29.5185 150.854 28.6631 151.168 27.9098C151.498 27.1565 151.929 26.5209 152.463 26.003C152.997 25.4852 153.617 25.0928 154.323 24.826C155.029 24.5435 155.759 24.4023 156.512 24.4023C157.265 24.4023 157.995 24.5435 158.701 24.826C159.408 25.0928 160.027 25.4852 160.561 26.003C161.095 26.5209 161.518 27.1565 161.832 27.9098C162.162 28.6631 162.327 29.5185 162.327 30.4758C162.327 31.4331 162.162 32.2884 161.832 33.0417C161.518 33.795 161.095 34.4306 160.561 34.9485C160.027 35.4664 159.408 35.8587 158.701 36.1255C157.995 36.3923 157.265 36.5257 156.512 36.5257C155.759 36.5257 155.029 36.3923 154.323 36.1255C153.617 35.8587 152.997 35.4664 152.463 34.9485C151.929 34.4306 151.498 33.795 151.168 33.0417C150.854 32.2884 150.697 31.4331 150.697 30.4758ZM153.499 30.4758C153.499 31.6371 153.766 32.5709 154.299 33.2771C154.833 33.9676 155.57 34.3129 156.512 34.3129C157.454 34.3129 158.191 33.9676 158.725 33.2771C159.258 32.5709 159.525 31.6371 159.525 30.4758C159.525 29.2987 159.258 28.3649 158.725 27.6744C158.191 26.9682 157.454 26.6151 156.512 26.6151C155.57 26.6151 154.833 26.9682 154.299 27.6744C153.766 28.3649 153.499 29.2987 153.499 30.4758ZM175.698 36.2432H173.485L173.273 34.4071H173.179C172.629 35.0505 172.025 35.5684 171.366 35.9607C170.707 36.3374 169.946 36.5257 169.083 36.5257C167.733 36.5257 166.752 36.1255 166.14 35.3251C165.528 34.509 165.222 33.3477 165.222 31.8411V24.6848H167.929V31.488C167.929 32.4296 168.086 33.1202 168.4 33.5596C168.73 33.9833 169.295 34.1952 170.095 34.1952C170.644 34.1952 171.131 34.0696 171.555 33.8185C171.994 33.5674 172.473 33.1202 172.99 32.4767V24.6848H175.698V36.2432ZM182.171 26.827H179.088V24.8025L182.289 24.6848L182.642 21.5303H184.878V24.6848H190.128V26.827H184.878V31.5822C184.878 32.5395 185.075 33.2457 185.467 33.7008C185.859 34.1403 186.55 34.36 187.539 34.36C188.041 34.36 188.496 34.3207 188.904 34.2423C189.328 34.1481 189.728 34.0304 190.104 33.8891L190.599 35.8666C190.097 36.0392 189.524 36.1883 188.88 36.3139C188.253 36.4551 187.586 36.5257 186.879 36.5257C186.001 36.5257 185.263 36.408 184.667 36.1726C184.07 35.9372 183.584 35.6076 183.207 35.1839C182.846 34.7444 182.579 34.2187 182.407 33.6067C182.25 32.9946 182.171 32.3198 182.171 31.5822V26.827Z" fill="#F9F9F9"/>
<defs>
<linearGradient id="paint0_linear_12_9" x1="0.99994" y1="27.9486" x2="477.727" y2="25.4031" gradientUnits="userSpaceOnUse">
<stop/>
<stop offset="1"/>
</linearGradient>
<linearGradient id="paint1_linear_12_9" x1="0.99994" y1="27.9485" x2="325" y2="27.9485" gradientUnits="userSpaceOnUse">
<stop stop-color="#F4B011"/>
<stop offset="1" stop-color="#F6E54B" stop-opacity="0.920705"/>
</linearGradient>
</defs>
</svg>
