<svg width="917" height="312" viewBox="0 0 917 312" fill="none" xmlns="http://www.w3.org/2000/svg">
<path opacity="0.60119" d="M916.133 0H0V311.463H916.133V0Z" fill="url(#paint0_radial_2_212)"/>
<path d="M307.21 143.595C309.94 143.595 311.667 143.093 312.391 142.091C313.171 141.088 313.56 139.389 313.56 136.994V120.784H308.213V118.946H332.276V120.784H329.018V144.347H327.765C326.762 142.954 325.342 142.258 323.503 142.258C322.724 142.258 320.384 142.759 316.485 143.762C312.641 144.764 309.355 145.266 306.625 145.266C297.546 145.266 290.499 142.815 285.486 137.913C280.528 133.011 278.05 125.658 278.05 115.855C278.05 105.995 280.64 98.3918 285.82 93.0444C291.056 87.6969 298.075 85.0231 306.876 85.0231C310.274 85.0231 313.672 85.4688 317.07 86.3601C320.523 87.1956 322.529 87.6133 323.086 87.6133C323.643 87.6133 324.06 87.502 324.339 87.2792C324.617 87.0006 324.924 86.555 325.258 85.9422H326.177L326.845 104.074H325.341C322.612 98.6704 319.855 94.4369 317.07 91.3733C314.34 88.2539 311.277 86.6942 307.879 86.6942C299.356 86.6942 295.095 95.0218 295.095 111.677V118.278C295.095 126.633 296.125 132.955 298.186 137.245C300.303 141.478 303.311 143.595 307.21 143.595ZM363.776 106.998C361.715 106.998 359.905 108.335 358.345 111.009C356.786 113.682 356.006 116.857 356.006 120.534V142.926H361.938V144.43H335.869V142.926H340.465V106.162H335.869V104.658H356.006V112.68C356.73 109.839 358.122 107.666 360.184 106.162C362.245 104.603 364.584 103.823 367.202 103.823C369.82 103.823 371.937 104.575 373.552 106.079C375.223 107.527 376.059 109.616 376.059 112.345C376.059 115.019 375.446 117.08 374.221 118.528C372.995 119.977 371.102 120.701 368.539 120.701C366.032 120.701 364.166 119.865 362.941 118.194C361.771 116.523 361.632 114.211 362.523 111.259H365.531C366.924 108.418 366.339 106.998 363.776 106.998ZM403.799 127.97V120.868C403.799 115.465 403.493 111.538 402.88 109.087C402.323 106.58 400.986 105.327 398.869 105.327C397.644 105.327 396.641 105.689 395.861 106.413C395.137 107.081 394.608 108.223 394.274 109.839C393.773 112.345 393.522 116.161 393.522 121.286V127.803C393.522 133.875 393.689 137.523 394.023 138.749C394.413 139.974 394.803 140.977 395.193 141.756C395.806 143.093 397.003 143.762 398.786 143.762C400.958 143.762 402.379 142.508 403.047 140.002C403.548 138.219 403.799 134.209 403.799 127.97ZM398.619 145.266C391.656 145.266 386.392 143.483 382.827 139.918C379.262 136.353 377.479 131.256 377.479 124.628C377.479 117.943 379.373 112.819 383.161 109.254C387.005 105.633 392.38 103.823 399.287 103.823C406.194 103.823 411.347 105.494 414.745 108.836C418.143 112.123 419.841 117.164 419.841 123.959C419.841 138.164 412.767 145.266 398.619 145.266ZM471.06 144.43H452.01L451.091 138.331C450.2 140.559 448.863 142.286 447.08 143.511C445.353 144.681 442.763 145.266 439.31 145.266C430.676 145.266 426.359 140.615 426.359 131.312V106.162H421.679V104.658H441.9V133.318C441.9 136.66 442.123 138.86 442.568 139.918C443.07 140.977 444.016 141.506 445.409 141.506C446.857 141.506 448.139 140.642 449.253 138.916C450.367 137.189 450.924 134.794 450.924 131.73V106.162H447.08V104.658H466.465V142.926H471.06V144.43ZM503.228 121.954C503.228 116.217 502.95 112.373 502.393 110.424C501.836 108.418 500.75 107.416 499.134 107.416C497.519 107.416 496.071 108.474 494.79 110.591C493.508 112.652 492.868 115.437 492.868 118.946V134.237C492.868 136.632 493.341 138.665 494.288 140.336C495.235 142.007 496.628 142.843 498.466 142.843C500.304 142.843 501.557 141.617 502.226 139.166C502.894 136.715 503.228 132.426 503.228 126.299V121.954ZM492.701 104.658V111.259C494.873 106.302 498.717 103.823 504.231 103.823C509.022 103.823 512.726 105.55 515.344 109.003C518.018 112.457 519.354 117.693 519.354 124.711C519.354 131.73 517.906 136.91 515.01 140.252C512.169 143.595 507.88 145.266 502.142 145.266C499.469 145.266 497.463 144.932 496.126 144.263C494.789 143.595 493.703 142.564 492.868 141.172V162.812H503.646V164.316H472.731V162.812H477.327V106.162H472.898V104.658H492.701ZM534.143 98.8931C531.191 98.8931 529.074 98.1412 527.793 96.6372C526.568 95.1332 525.955 93.2672 525.955 91.0391C525.955 88.811 526.624 86.9728 527.96 85.5245C529.353 84.0762 531.442 83.3521 534.227 83.3521C537.012 83.3521 539.129 84.0205 540.577 85.3573C542.025 86.6385 542.749 88.5046 542.749 90.9555C542.749 93.3508 542.053 95.2725 540.661 96.7208C539.268 98.169 537.096 98.8931 534.143 98.8931ZM521.527 104.658H541.998V142.926H546.677V144.43H521.861V142.926H526.456V106.162H521.527V104.658ZM570.322 145.266C563.137 145.266 557.733 143.428 554.113 139.751C550.548 136.019 548.765 130.867 548.765 124.294C548.765 117.665 550.771 112.596 554.781 109.087C558.847 105.577 564 103.823 570.239 103.823C582.883 103.823 588.955 110.173 588.454 122.873H564.892V126.132C564.892 131.591 565.588 135.713 566.98 138.498C568.373 141.283 570.796 142.676 574.249 142.676C580.711 142.676 584.944 139.222 586.95 132.315L588.454 132.565C587.395 136.576 585.473 139.695 582.688 141.924C579.959 144.152 575.837 145.266 570.322 145.266ZM564.975 121.202H573.581V117.108C573.581 112.596 573.302 109.532 572.745 107.917C572.244 106.246 571.186 105.41 569.57 105.41C568.011 105.41 566.841 106.302 566.061 108.084C565.337 109.811 564.975 112.819 564.975 117.108V121.202Z" fill="url(#paint1_linear_2_212)"/>
<path d="M376.474 151.175L377.31 172.147H375.722C373.271 164.739 371.099 159.698 369.205 157.024C367.311 154.295 364.582 152.93 361.017 152.93H360.014V207.909H367.116V209.663H336.619V207.909H343.721V152.93H342.635C339.07 152.93 336.313 154.35 334.363 157.191C332.413 159.976 330.269 164.962 327.929 172.147H326.342L327.177 151.175H376.474ZM407.473 172.231C405.412 172.231 403.602 173.568 402.042 176.242C400.482 178.915 399.702 182.09 399.702 185.767V208.159H405.635V209.663H379.566V208.159H384.161V171.395H379.566V169.892H399.702V177.913C400.426 175.072 401.819 172.899 403.88 171.395C405.941 169.836 408.281 169.056 410.899 169.056C413.517 169.056 415.633 169.808 417.249 171.312C418.92 172.76 419.755 174.849 419.755 177.578C419.755 180.252 419.143 182.313 417.917 183.762C416.692 185.21 414.798 185.934 412.235 185.934C409.729 185.934 407.863 185.098 406.637 183.427C405.468 181.756 405.328 179.445 406.22 176.492H409.227C410.62 173.651 410.035 172.231 407.473 172.231ZM439.725 190.028H442.148V183.594C442.148 178.303 441.842 174.766 441.229 172.983C440.672 171.145 439.558 170.226 437.887 170.226C436.884 170.226 435.965 170.504 435.129 171.061C434.35 171.563 433.96 172.287 433.96 173.234C433.96 174.125 434.127 175.044 434.461 175.991H436.55C436.995 177.161 437.218 178.581 437.218 180.252C437.218 181.868 436.522 183.288 435.129 184.514C433.737 185.683 431.982 186.268 429.865 186.268C425.075 186.268 422.68 183.956 422.68 179.333C422.68 172.482 428.501 169.056 440.143 169.056C446.771 169.056 451.339 170.198 453.845 172.482C456.408 174.71 457.689 178.832 457.689 184.848V201.809C457.689 204.706 458.497 206.154 460.112 206.154C462.006 206.154 463.12 203.285 463.454 197.548L464.708 197.632C464.485 202.533 463.566 205.903 461.95 207.742C460.335 209.58 457.689 210.499 454.013 210.499C447.328 210.499 443.485 208.438 442.482 204.316C441.758 206.433 440.672 207.992 439.224 208.995C437.775 209.997 435.659 210.499 432.873 210.499C424.629 210.499 420.508 207.129 420.508 200.389C420.508 196.434 422.067 193.732 425.187 192.284C428.362 190.78 433.208 190.028 439.725 190.028ZM436.383 200.305C436.383 203.202 436.522 205.068 436.801 205.903C437.135 206.739 437.72 207.157 438.555 207.157C439.447 207.157 440.254 206.46 440.978 205.068C441.758 203.62 442.148 201.642 442.148 199.135V191.365H441.563C438.11 191.365 436.383 193.899 436.383 198.968V200.305ZM488.938 170.56C486.487 170.56 484.733 171.897 483.674 174.571C482.616 177.244 482.087 181.673 482.087 187.856V192.2C482.087 197.715 482.7 201.67 483.925 204.065C485.151 206.46 487.407 207.658 490.693 207.658C493.98 207.658 496.597 206.544 498.547 204.316C500.497 202.088 501.75 199.553 502.307 196.712L503.811 196.88C502.753 201.67 500.803 205.123 497.962 207.24C495.066 209.413 491.083 210.499 486.014 210.499C479.553 210.499 474.595 208.772 471.141 205.318C467.688 201.809 465.961 196.712 465.961 190.028C465.961 183.288 467.91 178.108 471.81 174.487C475.765 170.866 481.251 169.056 488.27 169.056C493.227 169.056 497.015 170.031 499.633 171.98C502.251 173.874 503.56 176.269 503.56 179.166C503.56 182.063 502.92 184.179 501.639 185.516C500.413 186.853 498.686 187.521 496.458 187.521C494.286 187.521 492.531 186.937 491.194 185.767C489.857 184.597 489.189 182.87 489.189 180.586C489.189 179.584 489.328 178.581 489.607 177.578H492.364C492.754 176.464 492.949 175.462 492.949 174.571C492.949 171.897 491.612 170.56 488.938 170.56ZM532.387 209.663V208.159H536.23L526.788 188.775L525.201 189.193V208.159H529.044V209.663H505.064V208.159H509.66V148.502H504.73V146.998H525.201V187.521L526.538 187.02L545.337 171.395H537.483V169.892H553.943V171.395H548.095L538.152 179.834L552.607 208.159H555.615V209.663H532.387ZM576.754 210.499C569.568 210.499 564.165 208.661 560.544 204.984C556.979 201.252 555.197 196.1 555.197 189.527C555.197 182.898 557.202 177.829 561.213 174.32C565.279 170.811 570.432 169.056 576.67 169.056C589.315 169.056 595.386 175.406 594.885 188.106H571.323V191.365C571.323 196.824 572.019 200.946 573.412 203.731C574.804 206.516 577.227 207.909 580.681 207.909C587.142 207.909 591.376 204.455 593.381 197.548L594.885 197.799C593.827 201.809 591.905 204.929 589.12 207.157C586.391 209.385 582.268 210.499 576.754 210.499ZM571.407 186.435H580.013V182.341C580.013 177.829 579.734 174.765 579.177 173.15C578.676 171.479 577.617 170.643 576.002 170.643C574.442 170.643 573.272 171.535 572.493 173.317C571.768 175.044 571.407 178.052 571.407 182.341V186.435ZM625.8 172.231C623.739 172.231 621.929 173.568 620.369 176.242C618.81 178.915 618.03 182.09 618.03 185.767V208.159H623.962V209.663H597.893V208.159H602.489V171.395H597.893V169.892H618.03V177.913C618.754 175.072 620.147 172.899 622.208 171.395C624.269 169.836 626.608 169.056 629.226 169.056C631.844 169.056 633.961 169.808 635.576 171.312C637.247 172.76 638.083 174.849 638.083 177.578C638.083 180.252 637.47 182.313 636.244 183.762C635.019 185.21 633.125 185.934 630.563 185.934C628.056 185.934 626.19 185.098 624.965 183.427C623.795 181.756 623.656 179.445 624.547 176.492H627.555C628.947 173.651 628.362 172.231 625.8 172.231Z" fill="url(#paint2_linear_2_212)"/>
<defs>
<radialGradient id="paint0_radial_2_212" cx="0" cy="0" r="1" gradientUnits="userSpaceOnUse" gradientTransform="translate(458.067 155.732) scale(458.067 155.732)">
<stop stop-color="#FEF8EA"/>
<stop offset="0.522911" stop-color="#FEF8EA" stop-opacity="0.348018"/>
<stop offset="1" stop-color="#FEF8EA" stop-opacity="0"/>
</radialGradient>
<linearGradient id="paint1_linear_2_212" x1="278.05" y1="123.834" x2="588.483" y2="123.834" gradientUnits="userSpaceOnUse">
<stop stop-color="#161616"/>
<stop offset="1" stop-color="#161616" stop-opacity="0.767857"/>
</linearGradient>
<linearGradient id="paint2_linear_2_212" x1="326.342" y1="178.748" x2="638.083" y2="178.748" gradientUnits="userSpaceOnUse">
<stop stop-color="#161616"/>
<stop offset="1" stop-color="#161616" stop-opacity="0.571429"/>
</linearGradient>
</defs>
</svg>
